<svg width="32" height="32" xmlns="http://www.w3.org/2000/svg"><g fill="#4A4A4A" fill-rule="nonzero"><path d="M9.227 25.55c3.17 0 5.728-2.454 5.728-5.522s-2.557-5.625-5.728-5.625c-1.022 0-1.943.307-2.863.818 1.534-2.761 4.295-4.09 8.284-4.09V9.595C8 9.7 3.5 13.994 3.5 20.028c0 3.068 2.557 5.523 5.727 5.523zM21.9 21.727c3.17 0 5.727-2.454 5.727-5.522 0-3.069-2.557-5.625-5.727-5.625-1.023 0-1.943.306-2.864.818 1.534-2.762 4.296-4.091 8.284-4.091V5.773c-6.647.102-11.147 4.397-11.147 10.432 0 3.068 2.556 5.522 5.727 5.522z"/></g></svg>