<svg width="32" height="32" xmlns="http://www.w3.org/2000/svg"><g fill="#4A4A4A" fill-rule="nonzero"><path d="M9.664 23.977c3.17 0 5.727-2.454 5.727-5.522 0-3.069-2.557-5.625-5.727-5.625-1.023 0-1.943.306-2.864.818 1.534-2.762 4.296-4.091 8.284-4.091V8.023C8.436 8.125 3.936 12.42 3.936 18.455c0 3.068 2.557 5.522 5.728 5.522zM22.336 23.977c3.17 0 5.728-2.454 5.728-5.522 0-3.069-2.557-5.625-5.728-5.625-1.022 0-1.943.306-2.863.818 1.534-2.762 4.295-4.091 8.284-4.091V8.023c-6.648.102-11.148 4.397-11.148 10.432 0 3.068 2.557 5.522 5.727 5.522z"/></g></svg>