<svg width="32" height="32" xmlns="http://www.w3.org/2000/svg"><path d="M16 0c8.837 0 16 7.163 16 16s-7.163 16-16 16S0 24.837 0 16 7.163 0 16 0zm.367 8a7.71 7.71 0 00-2.355.348c-.727.231-1.343.539-1.848.922a6.185 6.185 0 00-1.297 1.324c-.36.5-.625 1.017-.797 1.55a5.188 5.188 0 00-.258 1.598c0 .823.16 1.55.477 2.18.318.63.784 1.075 1.399 1.336.114.041.213.041.296 0 .084-.042.138-.123.164-.242.11-.407.172-.651.188-.735a.573.573 0 00.016-.258.784.784 0 00-.149-.242c-.406-.495-.61-1.101-.61-1.82a4.462 4.462 0 011.215-3.063c.383-.406.864-.729 1.442-.968a4.87 4.87 0 011.883-.36c1.198 0 2.133.327 2.805.98.671.654 1.007 1.502 1.007 2.544 0 .885-.12 1.698-.36 2.437-.239.74-.581 1.334-1.026 1.781-.446.448-.952.672-1.52.672-.49 0-.884-.175-1.184-.527-.299-.352-.394-.77-.285-1.254.068-.276.176-.65.325-1.121.148-.471.268-.884.359-1.238.091-.354.137-.654.137-.899 0-.4-.107-.73-.32-.988-.214-.258-.522-.387-.923-.387-.494 0-.911.226-1.25.676-.338.45-.507 1.017-.507 1.7 0 .577.09 1.064.273 1.46l-1.164 5c-.057.235-.099.49-.125.766a9.24 9.24 0 00-.043.758 13.392 13.392 0 00.05 1.316 16.14 16.14 0 00.079.66c.01.047.04.077.09.09.05.013.095-.004.136-.05a8.74 8.74 0 00.391-.509c.167-.229.39-.593.668-1.093.279-.5.475-.966.59-1.399.083-.27.3-1.11.648-2.515.167.312.463.578.887.797a2.95 2.95 0 001.371.328c.964 0 1.823-.274 2.578-.82.756-.548 1.339-1.299 1.75-2.255.412-.955.617-2.03.617-3.222 0-.677-.14-1.334-.421-1.969a5.419 5.419 0 00-1.164-1.684c-.495-.487-1.111-.876-1.848-1.168A6.427 6.427 0 0016.367 8z" fill="#B91223" fill-rule="evenodd"/></svg>