<svg width="32" height="32" xmlns="http://www.w3.org/2000/svg"><path d="M16 0c8.837 0 16 7.163 16 16s-7.163 16-16 16S0 24.837 0 16 7.163 0 16 0zm3.07 9.336c-.906 0-1.678.319-2.316.957a3.155 3.155 0 00-.957 2.316c0 .302.023.555.07.758a9.45 9.45 0 01-3.773-.988A9.125 9.125 0 019.109 10c-.297.526-.445 1.057-.445 1.594 0 .552.132 1.067.395 1.547.263.479.62.87 1.074 1.171a3.27 3.27 0 01-1.485-.406v.04c0 .791.25 1.488.75 2.09a3.2 3.2 0 001.883 1.128 3.254 3.254 0 01-.875.117c-.187 0-.39-.02-.61-.062.204.656.588 1.199 1.153 1.629.565.43 1.2.647 1.903.652a7.574 7.574 0 01-1.93 1.133A5.68 5.68 0 018 21c1.385.89 3.065 1.336 5.04 1.336.973 0 1.899-.13 2.776-.39a8.47 8.47 0 002.325-1.067 9.665 9.665 0 001.82-1.582 8.774 8.774 0 001.332-1.95c.346-.695.612-1.41.797-2.148A9.01 9.01 0 0022.367 13v-.43A6.589 6.589 0 0024 10.867a6.24 6.24 0 01-1.89.524 3.148 3.148 0 001.445-1.82 6.527 6.527 0 01-2.07.796c-.678-.687-1.482-1.031-2.415-1.031z" fill="#2BA3EF" fill-rule="evenodd"/></svg>